<svg width="1292" height="1024" viewBox="0 0 1292 1024" fill="none" xmlns="http://www.w3.org/2000/svg">
<g filter="url(#filter0_f_4031_306)">
<ellipse cx="801.772" cy="668.108" rx="290.08" ry="274.892" fill="url(#paint0_radial_4031_306)" fill-opacity="0.5"/>
</g>
<g filter="url(#filter1_f_4031_306)">
<ellipse cx="353.549" cy="258.388" rx="152.627" ry="144.636" fill="url(#paint1_radial_4031_306)" fill-opacity="0.3"/>
</g>
<mask id="mask0_4031_306" style="mask-type:alpha" maskUnits="userSpaceOnUse" x="119" y="98" width="1056" height="823">
<rect x="119.969" y="99" width="49.2311" height="49.2311" stroke="white" stroke-opacity="0.04" stroke-width="0.984621"/>
<rect x="169.199" y="99" width="49.2311" height="49.2311" stroke="white" stroke-opacity="0.04" stroke-width="0.984621"/>
<rect x="218.432" y="99" width="49.2311" height="49.2311" stroke="white" stroke-opacity="0.04" stroke-width="0.984621"/>
<rect x="267.662" y="99" width="49.2311" height="49.2311" stroke="white" stroke-opacity="0.04" stroke-width="0.984621"/>
<rect x="316.893" y="99" width="49.2311" height="49.2311" stroke="white" stroke-opacity="0.04" stroke-width="0.984621"/>
<rect x="366.125" y="99" width="49.2311" height="49.2311" stroke="white" stroke-opacity="0.04" stroke-width="0.984621"/>
<rect x="415.355" y="99" width="49.2311" height="49.2311" stroke="white" stroke-opacity="0.04" stroke-width="0.984621"/>
<rect x="464.586" y="99" width="49.2311" height="49.2311" stroke="white" stroke-opacity="0.04" stroke-width="0.984621"/>
<rect x="513.816" y="99" width="49.2311" height="49.2311" stroke="white" stroke-opacity="0.04" stroke-width="0.984621"/>
<rect x="563.049" y="99" width="49.2311" height="49.2311" stroke="white" stroke-opacity="0.04" stroke-width="0.984621"/>
<rect x="612.279" y="99" width="49.2311" height="49.2311" stroke="white" stroke-opacity="0.04" stroke-width="0.984621"/>
<rect x="661.51" y="99" width="49.2311" height="49.2311" stroke="white" stroke-opacity="0.04" stroke-width="0.984621"/>
<rect x="710.742" y="99" width="49.2311" height="49.2311" stroke="white" stroke-opacity="0.04" stroke-width="0.984621"/>
<rect x="759.973" y="99" width="49.2311" height="49.2311" stroke="white" stroke-opacity="0.04" stroke-width="0.984621"/>
<rect x="809.203" y="99" width="49.2311" height="49.2311" stroke="white" stroke-opacity="0.04" stroke-width="0.984621"/>
<rect x="858.436" y="99" width="49.2311" height="49.2311" stroke="white" stroke-opacity="0.04" stroke-width="0.984621"/>
<rect x="907.666" y="99" width="49.2311" height="49.2311" stroke="white" stroke-opacity="0.04" stroke-width="0.984621"/>
<rect x="956.896" y="99" width="49.2311" height="49.2311" stroke="white" stroke-opacity="0.04" stroke-width="0.984621"/>
<rect x="1006.13" y="99" width="49.2311" height="49.2311" stroke="white" stroke-opacity="0.04" stroke-width="0.984621"/>
<rect x="1055.36" y="99" width="49.2311" height="49.2311" stroke="white" stroke-opacity="0.04" stroke-width="0.984621"/>
<rect x="1104.59" y="99" width="49.2311" height="49.2311" stroke="white" stroke-opacity="0.04" stroke-width="0.984621"/>
<rect x="119.969" y="162.213" width="49.2311" height="49.2311" stroke="white" stroke-opacity="0.04" stroke-width="0.984621"/>
<rect x="169.199" y="162.213" width="49.2311" height="49.2311" stroke="white" stroke-opacity="0.04" stroke-width="0.984621"/>
<rect x="218.432" y="162.213" width="49.2311" height="49.2311" fill="white" fill-opacity="0.04" stroke="white" stroke-opacity="0.04" stroke-width="0.984621"/>
<rect x="267.662" y="162.213" width="49.2311" height="49.2311" stroke="white" stroke-opacity="0.04" stroke-width="0.984621"/>
<rect x="316.893" y="162.213" width="49.2311" height="49.2311" stroke="white" stroke-opacity="0.04" stroke-width="0.984621"/>
<rect x="366.125" y="162.213" width="49.2311" height="49.2311" stroke="white" stroke-opacity="0.04" stroke-width="0.984621"/>
<rect x="415.355" y="162.213" width="49.2311" height="49.2311" stroke="white" stroke-opacity="0.04" stroke-width="0.984621"/>
<rect x="464.586" y="162.213" width="49.2311" height="49.2311" stroke="white" stroke-opacity="0.04" stroke-width="0.984621"/>
<rect x="513.816" y="162.213" width="49.2311" height="49.2311" stroke="white" stroke-opacity="0.04" stroke-width="0.984621"/>
<rect x="563.049" y="162.213" width="49.2311" height="49.2311" fill="white" fill-opacity="0.04" stroke="white" stroke-opacity="0.04" stroke-width="0.984621"/>
<rect x="612.279" y="162.213" width="49.2311" height="49.2311" stroke="white" stroke-opacity="0.04" stroke-width="0.984621"/>
<rect x="661.51" y="162.213" width="49.2311" height="49.2311" stroke="white" stroke-opacity="0.04" stroke-width="0.984621"/>
<rect x="710.742" y="162.213" width="49.2311" height="49.2311" stroke="white" stroke-opacity="0.04" stroke-width="0.984621"/>
<rect x="759.973" y="162.213" width="49.2311" height="49.2311" stroke="white" stroke-opacity="0.04" stroke-width="0.984621"/>
<rect x="809.203" y="162.213" width="49.2311" height="49.2311" stroke="white" stroke-opacity="0.04" stroke-width="0.984621"/>
<rect x="858.436" y="162.213" width="49.2311" height="49.2311" stroke="white" stroke-opacity="0.04" stroke-width="0.984621"/>
<rect x="907.666" y="162.213" width="49.2311" height="49.2311" stroke="white" stroke-opacity="0.04" stroke-width="0.984621"/>
<rect x="956.896" y="162.213" width="49.2311" height="49.2311" stroke="white" stroke-opacity="0.04" stroke-width="0.984621"/>
<rect x="1006.13" y="162.213" width="49.2311" height="49.2311" stroke="white" stroke-opacity="0.04" stroke-width="0.984621"/>
<rect x="1055.36" y="162.213" width="49.2311" height="49.2311" stroke="white" stroke-opacity="0.04" stroke-width="0.984621"/>
<rect x="1104.59" y="162.213" width="49.2311" height="49.2311" stroke="white" stroke-opacity="0.04" stroke-width="0.984621"/>
<rect x="119.969" y="225.404" width="49.2311" height="49.2311" stroke="white" stroke-opacity="0.04" stroke-width="0.984621"/>
<rect x="169.199" y="225.404" width="49.2311" height="49.2311" stroke="white" stroke-opacity="0.04" stroke-width="0.984621"/>
<rect x="218.432" y="225.404" width="49.2311" height="49.2311" stroke="white" stroke-opacity="0.04" stroke-width="0.984621"/>
<rect x="267.662" y="225.404" width="49.2311" height="49.2311" stroke="white" stroke-opacity="0.04" stroke-width="0.984621"/>
<rect x="316.893" y="225.404" width="49.2311" height="49.2311" stroke="white" stroke-opacity="0.04" stroke-width="0.984621"/>
<rect x="366.125" y="225.404" width="49.2311" height="49.2311" stroke="white" stroke-opacity="0.04" stroke-width="0.984621"/>
<rect x="415.355" y="225.404" width="49.2311" height="49.2311" stroke="white" stroke-opacity="0.04" stroke-width="0.984621"/>
<rect x="464.586" y="225.404" width="49.2311" height="49.2311" stroke="white" stroke-opacity="0.04" stroke-width="0.984621"/>
<rect x="513.816" y="225.404" width="49.2311" height="49.2311" stroke="white" stroke-opacity="0.04" stroke-width="0.984621"/>
<rect x="563.049" y="225.404" width="49.2311" height="49.2311" stroke="white" stroke-opacity="0.04" stroke-width="0.984621"/>
<rect x="612.279" y="225.404" width="49.2311" height="49.2311" stroke="white" stroke-opacity="0.04" stroke-width="0.984621"/>
<rect x="661.51" y="225.404" width="49.2311" height="49.2311" stroke="white" stroke-opacity="0.04" stroke-width="0.984621"/>
<rect x="710.742" y="225.404" width="49.2311" height="49.2311" stroke="white" stroke-opacity="0.04" stroke-width="0.984621"/>
<rect x="759.973" y="225.404" width="49.2311" height="49.2311" stroke="white" stroke-opacity="0.04" stroke-width="0.984621"/>
<rect x="809.203" y="225.404" width="49.2311" height="49.2311" stroke="white" stroke-opacity="0.04" stroke-width="0.984621"/>
<rect x="858.436" y="225.404" width="49.2311" height="49.2311" stroke="white" stroke-opacity="0.04" stroke-width="0.984621"/>
<rect x="907.666" y="225.404" width="49.2311" height="49.2311" fill="white" fill-opacity="0.04" stroke="white" stroke-opacity="0.04" stroke-width="0.984621"/>
<rect x="956.896" y="225.404" width="49.2311" height="49.2311" stroke="white" stroke-opacity="0.04" stroke-width="0.984621"/>
<rect x="1006.13" y="225.404" width="49.2311" height="49.2311" stroke="white" stroke-opacity="0.04" stroke-width="0.984621"/>
<rect x="1055.36" y="225.404" width="49.2311" height="49.2311" stroke="white" stroke-opacity="0.04" stroke-width="0.984621"/>
<rect x="1104.59" y="225.404" width="49.2311" height="49.2311" stroke="white" stroke-opacity="0.04" stroke-width="0.984621"/>
<rect x="119.969" y="288.617" width="49.2311" height="49.2311" stroke="white" stroke-opacity="0.04" stroke-width="0.984621"/>
<rect x="169.199" y="288.617" width="49.2311" height="49.2311" stroke="white" stroke-opacity="0.04" stroke-width="0.984621"/>
<rect x="218.432" y="288.617" width="49.2311" height="49.2311" stroke="white" stroke-opacity="0.04" stroke-width="0.984621"/>
<rect x="267.662" y="288.617" width="49.2311" height="49.2311" stroke="white" stroke-opacity="0.04" stroke-width="0.984621"/>
<rect x="316.893" y="288.617" width="49.2311" height="49.2311" stroke="white" stroke-opacity="0.04" stroke-width="0.984621"/>
<rect x="366.125" y="288.617" width="49.2311" height="49.2311" stroke="white" stroke-opacity="0.04" stroke-width="0.984621"/>
<rect x="415.355" y="288.617" width="49.2311" height="49.2311" stroke="white" stroke-opacity="0.04" stroke-width="0.984621"/>
<rect x="464.586" y="288.617" width="49.2311" height="49.2311" stroke="white" stroke-opacity="0.04" stroke-width="0.984621"/>
<rect x="513.816" y="288.617" width="49.2311" height="49.2311" stroke="white" stroke-opacity="0.04" stroke-width="0.984621"/>
<rect x="563.049" y="288.617" width="49.2311" height="49.2311" stroke="white" stroke-opacity="0.04" stroke-width="0.984621"/>
<rect x="612.279" y="288.617" width="49.2311" height="49.2311" stroke="white" stroke-opacity="0.04" stroke-width="0.984621"/>
<rect x="661.51" y="288.617" width="49.2311" height="49.2311" stroke="white" stroke-opacity="0.04" stroke-width="0.984621"/>
<rect x="710.742" y="288.617" width="49.2311" height="49.2311" stroke="white" stroke-opacity="0.04" stroke-width="0.984621"/>
<rect x="759.973" y="288.617" width="49.2311" height="49.2311" stroke="white" stroke-opacity="0.04" stroke-width="0.984621"/>
<rect x="809.203" y="288.617" width="49.2311" height="49.2311" stroke="white" stroke-opacity="0.04" stroke-width="0.984621"/>
<rect x="858.436" y="288.617" width="49.2311" height="49.2311" stroke="white" stroke-opacity="0.04" stroke-width="0.984621"/>
<rect x="907.666" y="288.617" width="49.2311" height="49.2311" stroke="white" stroke-opacity="0.04" stroke-width="0.984621"/>
<rect x="956.896" y="288.617" width="49.2311" height="49.2311" stroke="white" stroke-opacity="0.04" stroke-width="0.984621"/>
<rect x="1006.13" y="288.617" width="49.2311" height="49.2311" stroke="white" stroke-opacity="0.04" stroke-width="0.984621"/>
<rect x="1055.36" y="288.617" width="49.2311" height="49.2311" stroke="white" stroke-opacity="0.04" stroke-width="0.984621"/>
<rect x="1104.59" y="288.617" width="49.2311" height="49.2311" stroke="white" stroke-opacity="0.04" stroke-width="0.984621"/>
<rect x="119.969" y="351.809" width="49.2311" height="49.2311" stroke="white" stroke-opacity="0.04" stroke-width="0.984621"/>
<rect x="169.199" y="351.809" width="49.2311" height="49.2311" stroke="white" stroke-opacity="0.04" stroke-width="0.984621"/>
<rect x="218.432" y="351.809" width="49.2311" height="49.2311" stroke="white" stroke-opacity="0.04" stroke-width="0.984621"/>
<rect x="267.662" y="351.809" width="49.2311" height="49.2311" fill="white" fill-opacity="0.04" stroke="white" stroke-opacity="0.04" stroke-width="0.984621"/>
<rect x="316.893" y="351.809" width="49.2311" height="49.2311" stroke="white" stroke-opacity="0.04" stroke-width="0.984621"/>
<rect x="366.125" y="351.809" width="49.2311" height="49.2311" stroke="white" stroke-opacity="0.04" stroke-width="0.984621"/>
<rect x="415.355" y="351.809" width="49.2311" height="49.2311" stroke="white" stroke-opacity="0.04" stroke-width="0.984621"/>
<rect x="464.586" y="351.809" width="49.2311" height="49.2311" stroke="white" stroke-opacity="0.04" stroke-width="0.984621"/>
<rect x="513.816" y="351.809" width="49.2311" height="49.2311" stroke="white" stroke-opacity="0.04" stroke-width="0.984621"/>
<rect x="563.049" y="351.809" width="49.2311" height="49.2311" stroke="white" stroke-opacity="0.04" stroke-width="0.984621"/>
<rect x="612.279" y="351.809" width="49.2311" height="49.2311" stroke="white" stroke-opacity="0.04" stroke-width="0.984621"/>
<rect x="661.51" y="351.809" width="49.2311" height="49.2311" stroke="white" stroke-opacity="0.04" stroke-width="0.984621"/>
<rect x="710.742" y="351.809" width="49.2311" height="49.2311" fill="white" fill-opacity="0.04" stroke="white" stroke-opacity="0.04" stroke-width="0.984621"/>
<rect x="759.973" y="351.809" width="49.2311" height="49.2311" stroke="white" stroke-opacity="0.04" stroke-width="0.984621"/>
<rect x="809.203" y="351.809" width="49.2311" height="49.2311" stroke="white" stroke-opacity="0.04" stroke-width="0.984621"/>
<rect x="858.436" y="351.809" width="49.2311" height="49.2311" stroke="white" stroke-opacity="0.04" stroke-width="0.984621"/>
<rect x="907.666" y="351.809" width="49.2311" height="49.2311" stroke="white" stroke-opacity="0.04" stroke-width="0.984621"/>
<rect x="956.896" y="351.809" width="49.2311" height="49.2311" stroke="white" stroke-opacity="0.04" stroke-width="0.984621"/>
<rect x="1006.13" y="351.809" width="49.2311" height="49.2311" stroke="white" stroke-opacity="0.04" stroke-width="0.984621"/>
<rect x="1055.36" y="351.809" width="49.2311" height="49.2311" stroke="white" stroke-opacity="0.04" stroke-width="0.984621"/>
<rect x="1104.59" y="351.809" width="49.2311" height="49.2311" stroke="white" stroke-opacity="0.04" stroke-width="0.984621"/>
<rect x="119.969" y="415.021" width="49.2311" height="49.2311" stroke="white" stroke-opacity="0.04" stroke-width="0.984621"/>
<rect x="169.199" y="415.021" width="49.2311" height="49.2311" stroke="white" stroke-opacity="0.04" stroke-width="0.984621"/>
<rect x="218.432" y="415.021" width="49.2311" height="49.2311" stroke="white" stroke-opacity="0.04" stroke-width="0.984621"/>
<rect x="267.662" y="415.021" width="49.2311" height="49.2311" stroke="white" stroke-opacity="0.04" stroke-width="0.984621"/>
<rect x="316.893" y="415.021" width="49.2311" height="49.2311" stroke="white" stroke-opacity="0.04" stroke-width="0.984621"/>
<rect x="366.125" y="415.021" width="49.2311" height="49.2311" stroke="white" stroke-opacity="0.04" stroke-width="0.984621"/>
<rect x="415.355" y="415.021" width="49.2311" height="49.2311" stroke="white" stroke-opacity="0.04" stroke-width="0.984621"/>
<rect x="464.586" y="415.021" width="49.2311" height="49.2311" stroke="white" stroke-opacity="0.04" stroke-width="0.984621"/>
<rect x="513.816" y="415.021" width="49.2311" height="49.2311" stroke="white" stroke-opacity="0.04" stroke-width="0.984621"/>
<rect x="563.049" y="415.021" width="49.2311" height="49.2311" stroke="white" stroke-opacity="0.04" stroke-width="0.984621"/>
<rect x="612.279" y="415.021" width="49.2311" height="49.2311" stroke="white" stroke-opacity="0.04" stroke-width="0.984621"/>
<rect x="661.51" y="415.021" width="49.2311" height="49.2311" stroke="white" stroke-opacity="0.04" stroke-width="0.984621"/>
<rect x="710.742" y="415.021" width="49.2311" height="49.2311" stroke="white" stroke-opacity="0.04" stroke-width="0.984621"/>
<rect x="759.973" y="415.021" width="49.2311" height="49.2311" stroke="white" stroke-opacity="0.04" stroke-width="0.984621"/>
<rect x="809.203" y="415.021" width="49.2311" height="49.2311" stroke="white" stroke-opacity="0.04" stroke-width="0.984621"/>
<rect x="858.436" y="415.021" width="49.2311" height="49.2311" stroke="white" stroke-opacity="0.04" stroke-width="0.984621"/>
<rect x="907.666" y="415.021" width="49.2311" height="49.2311" stroke="white" stroke-opacity="0.04" stroke-width="0.984621"/>
<rect x="956.896" y="415.021" width="49.2311" height="49.2311" stroke="white" stroke-opacity="0.04" stroke-width="0.984621"/>
<rect x="1006.13" y="415.021" width="49.2311" height="49.2311" fill="white" fill-opacity="0.04" stroke="white" stroke-opacity="0.04" stroke-width="0.984621"/>
<rect x="1055.36" y="415.021" width="49.2311" height="49.2311" stroke="white" stroke-opacity="0.04" stroke-width="0.984621"/>
<rect x="1104.59" y="415.021" width="49.2311" height="49.2311" stroke="white" stroke-opacity="0.04" stroke-width="0.984621"/>
<rect x="119.969" y="478.233" width="49.2311" height="49.2311" stroke="white" stroke-opacity="0.04" stroke-width="0.984621"/>
<rect x="169.199" y="478.233" width="49.2311" height="49.2311" stroke="white" stroke-opacity="0.04" stroke-width="0.984621"/>
<rect x="218.432" y="478.233" width="49.2311" height="49.2311" stroke="white" stroke-opacity="0.04" stroke-width="0.984621"/>
<rect x="267.662" y="478.233" width="49.2311" height="49.2311" stroke="white" stroke-opacity="0.04" stroke-width="0.984621"/>
<rect x="316.893" y="478.233" width="49.2311" height="49.2311" stroke="white" stroke-opacity="0.04" stroke-width="0.984621"/>
<rect x="366.125" y="478.233" width="49.2311" height="49.2311" stroke="white" stroke-opacity="0.04" stroke-width="0.984621"/>
<rect x="415.355" y="478.233" width="49.2311" height="49.2311" stroke="white" stroke-opacity="0.04" stroke-width="0.984621"/>
<rect x="464.586" y="478.233" width="49.2311" height="49.2311" stroke="white" stroke-opacity="0.04" stroke-width="0.984621"/>
<rect x="513.816" y="478.233" width="49.2311" height="49.2311" stroke="white" stroke-opacity="0.04" stroke-width="0.984621"/>
<rect x="563.049" y="478.233" width="49.2311" height="49.2311" stroke="white" stroke-opacity="0.04" stroke-width="0.984621"/>
<rect x="612.279" y="478.233" width="49.2311" height="49.2311" stroke="white" stroke-opacity="0.04" stroke-width="0.984621"/>
<rect x="661.51" y="478.233" width="49.2311" height="49.2311" stroke="white" stroke-opacity="0.04" stroke-width="0.984621"/>
<rect x="710.742" y="478.233" width="49.2311" height="49.2311" stroke="white" stroke-opacity="0.04" stroke-width="0.984621"/>
<rect x="759.973" y="478.233" width="49.2311" height="49.2311" stroke="white" stroke-opacity="0.04" stroke-width="0.984621"/>
<rect x="809.203" y="478.233" width="49.2311" height="49.2311" stroke="white" stroke-opacity="0.04" stroke-width="0.984621"/>
<rect x="858.436" y="478.233" width="49.2311" height="49.2311" stroke="white" stroke-opacity="0.04" stroke-width="0.984621"/>
<rect x="907.666" y="478.233" width="49.2311" height="49.2311" stroke="white" stroke-opacity="0.04" stroke-width="0.984621"/>
<rect x="956.896" y="478.233" width="49.2311" height="49.2311" stroke="white" stroke-opacity="0.04" stroke-width="0.984621"/>
<rect x="1006.13" y="478.233" width="49.2311" height="49.2311" stroke="white" stroke-opacity="0.04" stroke-width="0.984621"/>
<rect x="1055.36" y="478.233" width="49.2311" height="49.2311" stroke="white" stroke-opacity="0.04" stroke-width="0.984621"/>
<rect x="1104.59" y="478.233" width="49.2311" height="49.2311" stroke="white" stroke-opacity="0.04" stroke-width="0.984621"/>
<rect x="119.969" y="541.426" width="49.2311" height="49.2311" stroke="white" stroke-opacity="0.04" stroke-width="0.984621"/>
<rect x="169.199" y="541.426" width="49.2311" height="49.2311" stroke="white" stroke-opacity="0.04" stroke-width="0.984621"/>
<rect x="218.432" y="541.426" width="49.2311" height="49.2311" stroke="white" stroke-opacity="0.04" stroke-width="0.984621"/>
<rect x="267.662" y="541.426" width="49.2311" height="49.2311" stroke="white" stroke-opacity="0.04" stroke-width="0.984621"/>
<rect x="316.893" y="541.426" width="49.2311" height="49.2311" stroke="white" stroke-opacity="0.04" stroke-width="0.984621"/>
<rect x="366.125" y="541.426" width="49.2311" height="49.2311" stroke="white" stroke-opacity="0.04" stroke-width="0.984621"/>
<rect x="415.355" y="541.426" width="49.2311" height="49.2311" stroke="white" stroke-opacity="0.04" stroke-width="0.984621"/>
<rect x="464.586" y="541.426" width="49.2311" height="49.2311" stroke="white" stroke-opacity="0.04" stroke-width="0.984621"/>
<rect x="513.816" y="541.426" width="49.2311" height="49.2311" fill="white" fill-opacity="0.04" stroke="white" stroke-opacity="0.04" stroke-width="0.984621"/>
<rect x="563.049" y="541.426" width="49.2311" height="49.2311" stroke="white" stroke-opacity="0.04" stroke-width="0.984621"/>
<rect x="612.279" y="541.426" width="49.2311" height="49.2311" stroke="white" stroke-opacity="0.04" stroke-width="0.984621"/>
<rect x="661.51" y="541.426" width="49.2311" height="49.2311" stroke="white" stroke-opacity="0.04" stroke-width="0.984621"/>
<rect x="710.742" y="541.426" width="49.2311" height="49.2311" stroke="white" stroke-opacity="0.04" stroke-width="0.984621"/>
<rect x="759.973" y="541.426" width="49.2311" height="49.2311" stroke="white" stroke-opacity="0.04" stroke-width="0.984621"/>
<rect x="809.203" y="541.426" width="49.2311" height="49.2311" stroke="white" stroke-opacity="0.04" stroke-width="0.984621"/>
<rect x="858.436" y="541.426" width="49.2311" height="49.2311" stroke="white" stroke-opacity="0.04" stroke-width="0.984621"/>
<rect x="907.666" y="541.426" width="49.2311" height="49.2311" stroke="white" stroke-opacity="0.04" stroke-width="0.984621"/>
<rect x="956.896" y="541.426" width="49.2311" height="49.2311" stroke="white" stroke-opacity="0.04" stroke-width="0.984621"/>
<rect x="1006.13" y="541.426" width="49.2311" height="49.2311" stroke="white" stroke-opacity="0.04" stroke-width="0.984621"/>
<rect x="1055.36" y="541.426" width="49.2311" height="49.2311" stroke="white" stroke-opacity="0.04" stroke-width="0.984621"/>
<rect x="1104.59" y="541.426" width="49.2311" height="49.2311" stroke="white" stroke-opacity="0.04" stroke-width="0.984621"/>
<rect x="119.969" y="604.638" width="49.2311" height="49.2311" stroke="white" stroke-opacity="0.04" stroke-width="0.984621"/>
<rect x="169.199" y="604.638" width="49.2311" height="49.2311" stroke="white" stroke-opacity="0.04" stroke-width="0.984621"/>
<rect x="218.432" y="604.638" width="49.2311" height="49.2311" stroke="white" stroke-opacity="0.04" stroke-width="0.984621"/>
<rect x="267.662" y="604.638" width="49.2311" height="49.2311" stroke="white" stroke-opacity="0.04" stroke-width="0.984621"/>
<rect x="316.893" y="604.638" width="49.2311" height="49.2311" fill="white" fill-opacity="0.04" stroke="white" stroke-opacity="0.04" stroke-width="0.984621"/>
<rect x="366.125" y="604.638" width="49.2311" height="49.2311" stroke="white" stroke-opacity="0.04" stroke-width="0.984621"/>
<rect x="415.355" y="604.638" width="49.2311" height="49.2311" stroke="white" stroke-opacity="0.04" stroke-width="0.984621"/>
<rect x="464.586" y="604.638" width="49.2311" height="49.2311" stroke="white" stroke-opacity="0.04" stroke-width="0.984621"/>
<rect x="513.816" y="604.638" width="49.2311" height="49.2311" stroke="white" stroke-opacity="0.04" stroke-width="0.984621"/>
<rect x="563.049" y="604.638" width="49.2311" height="49.2311" stroke="white" stroke-opacity="0.04" stroke-width="0.984621"/>
<rect x="612.279" y="604.638" width="49.2311" height="49.2311" stroke="white" stroke-opacity="0.04" stroke-width="0.984621"/>
<rect x="661.51" y="604.638" width="49.2311" height="49.2311" stroke="white" stroke-opacity="0.04" stroke-width="0.984621"/>
<rect x="710.742" y="604.638" width="49.2311" height="49.2311" stroke="white" stroke-opacity="0.04" stroke-width="0.984621"/>
<rect x="759.973" y="604.638" width="49.2311" height="49.2311" stroke="white" stroke-opacity="0.04" stroke-width="0.984621"/>
<rect x="809.203" y="604.638" width="49.2311" height="49.2311" stroke="white" stroke-opacity="0.04" stroke-width="0.984621"/>
<rect x="858.436" y="604.638" width="49.2311" height="49.2311" stroke="white" stroke-opacity="0.04" stroke-width="0.984621"/>
<rect x="907.666" y="604.638" width="49.2311" height="49.2311" stroke="white" stroke-opacity="0.04" stroke-width="0.984621"/>
<rect x="956.896" y="604.638" width="49.2311" height="49.2311" stroke="white" stroke-opacity="0.04" stroke-width="0.984621"/>
<rect x="1006.13" y="604.638" width="49.2311" height="49.2311" stroke="white" stroke-opacity="0.04" stroke-width="0.984621"/>
<rect x="1055.36" y="604.638" width="49.2311" height="49.2311" stroke="white" stroke-opacity="0.04" stroke-width="0.984621"/>
<rect x="1104.59" y="604.638" width="49.2311" height="49.2311" stroke="white" stroke-opacity="0.04" stroke-width="0.984621"/>
<rect x="119.969" y="667.85" width="49.2311" height="49.2311" stroke="white" stroke-opacity="0.04" stroke-width="0.984621"/>
<rect x="169.199" y="667.85" width="49.2311" height="49.2311" stroke="white" stroke-opacity="0.04" stroke-width="0.984621"/>
<rect x="218.432" y="667.85" width="49.2311" height="49.2311" stroke="white" stroke-opacity="0.04" stroke-width="0.984621"/>
<rect x="267.662" y="667.85" width="49.2311" height="49.2311" stroke="white" stroke-opacity="0.04" stroke-width="0.984621"/>
<rect x="316.893" y="667.85" width="49.2311" height="49.2311" stroke="white" stroke-opacity="0.04" stroke-width="0.984621"/>
<rect x="366.125" y="667.85" width="49.2311" height="49.2311" stroke="white" stroke-opacity="0.04" stroke-width="0.984621"/>
<rect x="415.355" y="667.85" width="49.2311" height="49.2311" stroke="white" stroke-opacity="0.04" stroke-width="0.984621"/>
<rect x="464.586" y="667.85" width="49.2311" height="49.2311" stroke="white" stroke-opacity="0.04" stroke-width="0.984621"/>
<rect x="513.816" y="667.85" width="49.2311" height="49.2311" stroke="white" stroke-opacity="0.04" stroke-width="0.984621"/>
<rect x="563.049" y="667.85" width="49.2311" height="49.2311" stroke="white" stroke-opacity="0.04" stroke-width="0.984621"/>
<rect x="612.279" y="667.85" width="49.2311" height="49.2311" stroke="white" stroke-opacity="0.04" stroke-width="0.984621"/>
<rect x="661.51" y="667.85" width="49.2311" height="49.2311" stroke="white" stroke-opacity="0.04" stroke-width="0.984621"/>
<rect x="710.742" y="667.85" width="49.2311" height="49.2311" stroke="white" stroke-opacity="0.04" stroke-width="0.984621"/>
<rect x="759.973" y="667.85" width="49.2311" height="49.2311" stroke="white" stroke-opacity="0.04" stroke-width="0.984621"/>
<rect x="809.203" y="667.85" width="49.2311" height="49.2311" stroke="white" stroke-opacity="0.04" stroke-width="0.984621"/>
<rect x="858.436" y="667.85" width="49.2311" height="49.2311" stroke="white" stroke-opacity="0.04" stroke-width="0.984621"/>
<rect x="907.666" y="667.85" width="49.2311" height="49.2311" stroke="white" stroke-opacity="0.04" stroke-width="0.984621"/>
<rect x="956.896" y="667.85" width="49.2311" height="49.2311" stroke="white" stroke-opacity="0.04" stroke-width="0.984621"/>
<rect x="1006.13" y="667.85" width="49.2311" height="49.2311" stroke="white" stroke-opacity="0.04" stroke-width="0.984621"/>
<rect x="1055.36" y="667.85" width="49.2311" height="49.2311" stroke="white" stroke-opacity="0.04" stroke-width="0.984621"/>
<rect x="1104.59" y="667.85" width="49.2311" height="49.2311" stroke="white" stroke-opacity="0.04" stroke-width="0.984621"/>
<rect x="119.969" y="731.039" width="49.2311" height="49.2311" stroke="white" stroke-opacity="0.04" stroke-width="0.984621"/>
<rect x="169.199" y="731.039" width="49.2311" height="49.2311" stroke="white" stroke-opacity="0.04" stroke-width="0.984621"/>
<rect x="218.432" y="731.039" width="49.2311" height="49.2311" stroke="white" stroke-opacity="0.04" stroke-width="0.984621"/>
<rect x="267.662" y="731.039" width="49.2311" height="49.2311" stroke="white" stroke-opacity="0.04" stroke-width="0.984621"/>
<rect x="316.893" y="731.039" width="49.2311" height="49.2311" stroke="white" stroke-opacity="0.04" stroke-width="0.984621"/>
<rect x="366.125" y="731.039" width="49.2311" height="49.2311" stroke="white" stroke-opacity="0.04" stroke-width="0.984621"/>
<rect x="415.355" y="731.039" width="49.2311" height="49.2311" stroke="white" stroke-opacity="0.04" stroke-width="0.984621"/>
<rect x="464.586" y="731.039" width="49.2311" height="49.2311" stroke="white" stroke-opacity="0.04" stroke-width="0.984621"/>
<rect x="513.816" y="731.039" width="49.2311" height="49.2311" stroke="white" stroke-opacity="0.04" stroke-width="0.984621"/>
<rect x="563.049" y="731.039" width="49.2311" height="49.2311" stroke="white" stroke-opacity="0.04" stroke-width="0.984621"/>
<rect x="612.279" y="731.039" width="49.2311" height="49.2311" stroke="white" stroke-opacity="0.04" stroke-width="0.984621"/>
<rect x="661.51" y="731.039" width="49.2311" height="49.2311" stroke="white" stroke-opacity="0.04" stroke-width="0.984621"/>
<rect x="710.742" y="731.039" width="49.2311" height="49.2311" stroke="white" stroke-opacity="0.04" stroke-width="0.984621"/>
<rect x="759.973" y="731.039" width="49.2311" height="49.2311" stroke="white" stroke-opacity="0.04" stroke-width="0.984621"/>
<rect x="809.203" y="731.039" width="49.2311" height="49.2311" stroke="white" stroke-opacity="0.04" stroke-width="0.984621"/>
<rect x="858.436" y="731.039" width="49.2311" height="49.2311" stroke="white" stroke-opacity="0.04" stroke-width="0.984621"/>
<rect x="907.666" y="731.039" width="49.2311" height="49.2311" stroke="white" stroke-opacity="0.04" stroke-width="0.984621"/>
<rect x="956.896" y="731.039" width="49.2311" height="49.2311" stroke="white" stroke-opacity="0.04" stroke-width="0.984621"/>
<rect x="1006.13" y="731.039" width="49.2311" height="49.2311" stroke="white" stroke-opacity="0.04" stroke-width="0.984621"/>
<rect x="1055.36" y="731.039" width="49.2311" height="49.2311" stroke="white" stroke-opacity="0.04" stroke-width="0.984621"/>
<rect x="1104.59" y="731.039" width="49.2311" height="49.2311" stroke="white" stroke-opacity="0.04" stroke-width="0.984621"/>
<rect x="119.969" y="794.251" width="49.2311" height="49.2311" stroke="white" stroke-opacity="0.04" stroke-width="0.984621"/>
<rect x="169.199" y="794.251" width="49.2311" height="49.2311" stroke="white" stroke-opacity="0.04" stroke-width="0.984621"/>
<rect x="218.432" y="794.251" width="49.2311" height="49.2311" stroke="white" stroke-opacity="0.04" stroke-width="0.984621"/>
<rect x="267.662" y="794.251" width="49.2311" height="49.2311" stroke="white" stroke-opacity="0.04" stroke-width="0.984621"/>
<rect x="316.893" y="794.251" width="49.2311" height="49.2311" stroke="white" stroke-opacity="0.04" stroke-width="0.984621"/>
<rect x="366.125" y="794.251" width="49.2311" height="49.2311" stroke="white" stroke-opacity="0.04" stroke-width="0.984621"/>
<rect x="415.355" y="794.251" width="49.2311" height="49.2311" stroke="white" stroke-opacity="0.04" stroke-width="0.984621"/>
<rect x="464.586" y="794.251" width="49.2311" height="49.2311" stroke="white" stroke-opacity="0.04" stroke-width="0.984621"/>
<rect x="513.816" y="794.251" width="49.2311" height="49.2311" stroke="white" stroke-opacity="0.04" stroke-width="0.984621"/>
<rect x="563.049" y="794.251" width="49.2311" height="49.2311" stroke="white" stroke-opacity="0.04" stroke-width="0.984621"/>
<rect x="612.279" y="794.251" width="49.2311" height="49.2311" stroke="white" stroke-opacity="0.04" stroke-width="0.984621"/>
<rect x="661.51" y="794.251" width="49.2311" height="49.2311" stroke="white" stroke-opacity="0.04" stroke-width="0.984621"/>
<rect x="710.742" y="794.251" width="49.2311" height="49.2311" stroke="white" stroke-opacity="0.04" stroke-width="0.984621"/>
<rect x="759.973" y="794.251" width="49.2311" height="49.2311" stroke="white" stroke-opacity="0.04" stroke-width="0.984621"/>
<rect x="809.203" y="794.251" width="49.2311" height="49.2311" stroke="white" stroke-opacity="0.04" stroke-width="0.984621"/>
<rect x="858.436" y="794.251" width="49.2311" height="49.2311" stroke="white" stroke-opacity="0.04" stroke-width="0.984621"/>
<rect x="907.666" y="794.251" width="49.2311" height="49.2311" stroke="white" stroke-opacity="0.04" stroke-width="0.984621"/>
<rect x="956.896" y="794.251" width="49.2311" height="49.2311" stroke="white" stroke-opacity="0.04" stroke-width="0.984621"/>
<rect x="1006.13" y="794.251" width="49.2311" height="49.2311" stroke="white" stroke-opacity="0.04" stroke-width="0.984621"/>
<rect x="1055.36" y="794.251" width="49.2311" height="49.2311" stroke="white" stroke-opacity="0.04" stroke-width="0.984621"/>
<rect x="1104.59" y="794.251" width="49.2311" height="49.2311" stroke="white" stroke-opacity="0.04" stroke-width="0.984621"/>
<rect x="119.969" y="857.447" width="49.2311" height="49.2311" stroke="white" stroke-opacity="0.04" stroke-width="0.984621"/>
<rect x="169.199" y="857.447" width="49.2311" height="49.2311" stroke="white" stroke-opacity="0.04" stroke-width="0.984621"/>
<rect x="218.432" y="857.447" width="49.2311" height="49.2311" stroke="white" stroke-opacity="0.04" stroke-width="0.984621"/>
<rect x="267.662" y="857.447" width="49.2311" height="49.2311" stroke="white" stroke-opacity="0.04" stroke-width="0.984621"/>
<rect x="316.893" y="857.447" width="49.2311" height="49.2311" stroke="white" stroke-opacity="0.04" stroke-width="0.984621"/>
<rect x="366.125" y="857.447" width="49.2311" height="49.2311" stroke="white" stroke-opacity="0.04" stroke-width="0.984621"/>
<rect x="415.355" y="857.447" width="49.2311" height="49.2311" stroke="white" stroke-opacity="0.04" stroke-width="0.984621"/>
<rect x="464.586" y="857.447" width="49.2311" height="49.2311" stroke="white" stroke-opacity="0.04" stroke-width="0.984621"/>
<rect x="513.816" y="857.447" width="49.2311" height="49.2311" stroke="white" stroke-opacity="0.04" stroke-width="0.984621"/>
<rect x="563.049" y="857.447" width="49.2311" height="49.2311" stroke="white" stroke-opacity="0.04" stroke-width="0.984621"/>
<rect x="612.279" y="857.447" width="49.2311" height="49.2311" stroke="white" stroke-opacity="0.04" stroke-width="0.984621"/>
<rect x="661.51" y="857.447" width="49.2311" height="49.2311" stroke="white" stroke-opacity="0.04" stroke-width="0.984621"/>
<rect x="710.742" y="857.447" width="49.2311" height="49.2311" stroke="white" stroke-opacity="0.04" stroke-width="0.984621"/>
<rect x="759.973" y="857.447" width="49.2311" height="49.2311" stroke="white" stroke-opacity="0.04" stroke-width="0.984621"/>
<rect x="809.203" y="857.447" width="49.2311" height="49.2311" stroke="white" stroke-opacity="0.04" stroke-width="0.984621"/>
<rect x="858.436" y="857.447" width="49.2311" height="49.2311" stroke="white" stroke-opacity="0.04" stroke-width="0.984621"/>
<rect x="907.666" y="857.447" width="49.2311" height="49.2311" stroke="white" stroke-opacity="0.04" stroke-width="0.984621"/>
<rect x="956.896" y="857.447" width="49.2311" height="49.2311" stroke="white" stroke-opacity="0.04" stroke-width="0.984621"/>
<rect x="1006.13" y="857.447" width="49.2311" height="49.2311" stroke="white" stroke-opacity="0.04" stroke-width="0.984621"/>
<rect x="1055.36" y="857.447" width="49.2311" height="49.2311" stroke="white" stroke-opacity="0.04" stroke-width="0.984621"/>
<rect x="1104.59" y="857.447" width="49.2311" height="49.2311" stroke="white" stroke-opacity="0.04" stroke-width="0.984621"/>
</mask>
<g mask="url(#mask0_4031_306)">
<rect x="119.969" y="97.7163" width="1055" height="825.502" fill="#DB2777"/>
</g>
<defs>
<filter id="filter0_f_4031_306" x="311.691" y="193.216" width="980.16" height="949.784" filterUnits="userSpaceOnUse" color-interpolation-filters="sRGB">
<feFlood flood-opacity="0" result="BackgroundImageFix"/>
<feBlend mode="normal" in="SourceGraphic" in2="BackgroundImageFix" result="shape"/>
<feGaussianBlur stdDeviation="100" result="effect1_foregroundBlur_4031_306"/>
</filter>
<filter id="filter1_f_4031_306" x="0.921875" y="-86.2471" width="705.254" height="689.271" filterUnits="userSpaceOnUse" color-interpolation-filters="sRGB">
<feFlood flood-opacity="0" result="BackgroundImageFix"/>
<feBlend mode="normal" in="SourceGraphic" in2="BackgroundImageFix" result="shape"/>
<feGaussianBlur stdDeviation="100" result="effect1_foregroundBlur_4031_306"/>
</filter>
<radialGradient id="paint0_radial_4031_306" cx="0" cy="0" r="1" gradientUnits="userSpaceOnUse" gradientTransform="translate(801.772 668.108) rotate(90) scale(274.892 290.08)">
<stop offset="0.9999" stop-color="#DB2777"/>
<stop offset="1" stop-color="#FDF2F8"/>
</radialGradient>
<radialGradient id="paint1_radial_4031_306" cx="0" cy="0" r="1" gradientUnits="userSpaceOnUse" gradientTransform="translate(353.549 258.388) rotate(90) scale(144.636 152.627)">
<stop offset="0.9999" stop-color="#BE185D"/>
<stop offset="1" stop-color="#FDF2F8"/>
</radialGradient>
</defs>
</svg>
